STARTFONT 2.1
FONT -FontForge-Noto Sans Medium-Medium-R-Normal-Sans--6-60-75-75-P-32-ISO10646-1
SIZE 6 75 75
FONTBOUNDINGBOX 6 6 0 -1
COMMENT "Generated by fontforge, http://fontforge.sourceforge.net"
COMMENT "Copyright 2015-2021 Google LLC. All Rights Reserved."
STARTPROPERTIES 41
FOUNDRY "FontForge"
FAMILY_NAME "Noto Sans Medium"
WEIGHT_NAME "Medium"
SLANT "R"
SETWIDTH_NAME "Normal"
ADD_STYLE_NAME "Sans"
PIXEL_SIZE 6
POINT_SIZE 60
RESOLUTION_X 75
RESOLUTION_Y 75
SPACING "P"
AVERAGE_WIDTH 32
CHARSET_REGISTRY "ISO10646"
CHARSET_ENCODING "1"
FONTNAME_REGISTRY ""
CHARSET_COLLECTIONS "ISO8859-2 ISO8859-5 ISO8859-7 ISO8859-9 ISO8859-4 ISO10646-1"
FONT_NAME "NotoSans-Medium"
FACE_NAME "Noto Sans Medium"
COPYRIGHT "Copyright 2015-2021 Google LLC. All Rights Reserved."
FONT_VERSION "2.007"
FONT_ASCENT 5
FONT_DESCENT 1
UNDERLINE_POSITION -1
UNDERLINE_THICKNESS 1
X_HEIGHT 2
CAP_HEIGHT 3
DEFAULT_CHAR 1
RAW_ASCENT 800
RAW_DESCENT 200
NORM_SPACE 2
RELATIVE_WEIGHT 50
RELATIVE_SETWIDTH 50
SUPERSCRIPT_X 0
SUPERSCRIPT_Y 2
SUPERSCRIPT_SIZE 3
SUBSCRIPT_X 0
SUBSCRIPT_Y 0
SUBSCRIPT_SIZE 3
FIGURE_WIDTH 3
AVG_LOWERCASE_WIDTH 34
AVG_UPPERCASE_WIDTH 42
ENDPROPERTIES
CHARS 128
STARTCHAR NULL
ENCODING 0
SWIDTH 0 0
DWIDTH 0 0
BBX 1 1 0 0
BITMAP
00
ENDCHAR
STARTCHAR CR
ENCODING 13
SWIDTH 260 0
DWIDTH 2 0
BBX 1 1 0 0
BITMAP
00
ENDCHAR
STARTCHAR space
ENCODING 32
SWIDTH 260 0
DWIDTH 2 0
BBX 1 1 0 0
BITMAP
00
ENDCHAR
STARTCHAR exclam
ENCODING 33
SWIDTH 274 0
DWIDTH 2 0
BBX 1 4 0 0
BITMAP
80
80
80
80
ENDCHAR
STARTCHAR quotedbl
ENCODING 34
SWIDTH 427 0
DWIDTH 3 0
BBX 2 1 0 3
BITMAP
C0
ENDCHAR
STARTCHAR numbersign
ENCODING 35
SWIDTH 646 0
DWIDTH 4 0
BBX 4 4 0 0
BITMAP
60
F0
F0
A0
ENDCHAR
STARTCHAR dollar
ENCODING 36
SWIDTH 572 0
DWIDTH 3 0
BBX 3 5 0 0
BITMAP
40
A0
40
20
E0
ENDCHAR
STARTCHAR percent
ENCODING 37
SWIDTH 852 0
DWIDTH 5 0
BBX 5 4 0 0
BITMAP
D0
F0
38
58
ENDCHAR
STARTCHAR ampersand
ENCODING 38
SWIDTH 737 0
DWIDTH 4 0
BBX 4 4 0 0
BITMAP
E0
40
B0
F0
ENDCHAR
STARTCHAR quotesingle
ENCODING 39
SWIDTH 237 0
DWIDTH 1 0
BBX 1 1 0 3
BITMAP
80
ENDCHAR
STARTCHAR parenleft
ENCODING 40
SWIDTH 312 0
DWIDTH 2 0
BBX 2 5 0 -1
BITMAP
C0
80
80
80
40
ENDCHAR
STARTCHAR parenright
ENCODING 41
SWIDTH 312 0
DWIDTH 2 0
BBX 2 5 0 -1
BITMAP
80
40
40
40
80
ENDCHAR
STARTCHAR asterisk
ENCODING 42
SWIDTH 549 0
DWIDTH 3 0
BBX 3 3 0 2
BITMAP
40
E0
60
ENDCHAR
STARTCHAR plus
ENCODING 43
SWIDTH 572 0
DWIDTH 3 0
BBX 3 3 0 1
BITMAP
40
E0
40
ENDCHAR
STARTCHAR comma
ENCODING 44
SWIDTH 273 0
DWIDTH 2 0
BBX 1 2 0 -1
BITMAP
80
80
ENDCHAR
STARTCHAR hyphen
ENCODING 45
SWIDTH 322 0
DWIDTH 2 0
BBX 2 1 0 1
BITMAP
C0
ENDCHAR
STARTCHAR period
ENCODING 46
SWIDTH 273 0
DWIDTH 2 0
BBX 1 1 0 0
BITMAP
80
ENDCHAR
STARTCHAR slash
ENCODING 47
SWIDTH 384 0
DWIDTH 2 0
BBX 2 4 0 0
BITMAP
40
40
80
80
ENDCHAR
STARTCHAR zero
ENCODING 48
SWIDTH 572 0
DWIDTH 3 0
BBX 3 4 0 0
BITMAP
E0
A0
A0
60
ENDCHAR
STARTCHAR one
ENCODING 49
SWIDTH 572 0
DWIDTH 3 0
BBX 2 4 0 0
BITMAP
C0
40
40
40
ENDCHAR
STARTCHAR two
ENCODING 50
SWIDTH 572 0
DWIDTH 3 0
BBX 3 4 0 0
BITMAP
E0
20
40
E0
ENDCHAR
STARTCHAR three
ENCODING 51
SWIDTH 572 0
DWIDTH 3 0
BBX 3 4 0 0
BITMAP
E0
60
20
E0
ENDCHAR
STARTCHAR four
ENCODING 52
SWIDTH 572 0
DWIDTH 3 0
BBX 3 4 0 0
BITMAP
20
60
E0
20
ENDCHAR
STARTCHAR five
ENCODING 53
SWIDTH 572 0
DWIDTH 3 0
BBX 3 4 0 0
BITMAP
E0
C0
20
E0
ENDCHAR
STARTCHAR six
ENCODING 54
SWIDTH 572 0
DWIDTH 3 0
BBX 3 4 0 0
BITMAP
E0
E0
A0
60
ENDCHAR
STARTCHAR seven
ENCODING 55
SWIDTH 572 0
DWIDTH 3 0
BBX 3 4 0 0
BITMAP
E0
20
40
40
ENDCHAR
STARTCHAR eight
ENCODING 56
SWIDTH 572 0
DWIDTH 3 0
BBX 3 4 0 0
BITMAP
E0
60
A0
E0
ENDCHAR
STARTCHAR nine
ENCODING 57
SWIDTH 572 0
DWIDTH 3 0
BBX 3 4 0 0
BITMAP
E0
A0
60
E0
ENDCHAR
STARTCHAR colon
ENCODING 58
SWIDTH 273 0
DWIDTH 2 0
BBX 1 3 0 0
BITMAP
80
00
80
ENDCHAR
STARTCHAR semicolon
ENCODING 59
SWIDTH 273 0
DWIDTH 2 0
BBX 1 4 0 -1
BITMAP
80
00
80
80
ENDCHAR
STARTCHAR less
ENCODING 60
SWIDTH 572 0
DWIDTH 3 0
BBX 3 3 0 1
BITMAP
20
C0
60
ENDCHAR
STARTCHAR equal
ENCODING 61
SWIDTH 572 0
DWIDTH 3 0
BBX 3 2 0 1
BITMAP
E0
E0
ENDCHAR
STARTCHAR greater
ENCODING 62
SWIDTH 572 0
DWIDTH 3 0
BBX 3 3 0 1
BITMAP
80
60
C0
ENDCHAR
STARTCHAR question
ENCODING 63
SWIDTH 447 0
DWIDTH 3 0
BBX 3 4 0 0
BITMAP
E0
40
40
40
ENDCHAR
STARTCHAR at
ENCODING 64
SWIDTH 898 0
DWIDTH 5 0
BBX 5 5 0 -1
BITMAP
78
F8
D8
A0
70
ENDCHAR
STARTCHAR A
ENCODING 65
SWIDTH 654 0
DWIDTH 4 0
BBX 4 4 0 0
BITMAP
60
60
60
90
ENDCHAR
STARTCHAR B
ENCODING 66
SWIDTH 656 0
DWIDTH 4 0
BBX 3 4 1 0
BITMAP
E0
C0
A0
C0
ENDCHAR
STARTCHAR C
ENCODING 67
SWIDTH 633 0
DWIDTH 4 0
BBX 4 4 0 0
BITMAP
70
80
80
60
ENDCHAR
STARTCHAR D
ENCODING 68
SWIDTH 733 0
DWIDTH 4 0
BBX 3 4 1 0
BITMAP
E0
A0
A0
C0
ENDCHAR
STARTCHAR E
ENCODING 69
SWIDTH 557 0
DWIDTH 3 0
BBX 2 4 1 0
BITMAP
C0
C0
80
C0
ENDCHAR
STARTCHAR F
ENCODING 70
SWIDTH 528 0
DWIDTH 3 0
BBX 2 4 1 0
BITMAP
C0
C0
80
80
ENDCHAR
STARTCHAR G
ENCODING 71
SWIDTH 727 0
DWIDTH 4 0
BBX 4 4 0 0
BITMAP
70
A0
90
70
ENDCHAR
STARTCHAR H
ENCODING 72
SWIDTH 748 0
DWIDTH 4 0
BBX 3 4 1 0
BITMAP
A0
E0
A0
A0
ENDCHAR
STARTCHAR I
ENCODING 73
SWIDTH 354 0
DWIDTH 2 0
BBX 2 4 0 0
BITMAP
C0
40
40
C0
ENDCHAR
STARTCHAR J
ENCODING 74
SWIDTH 290 0
DWIDTH 2 0
BBX 1 5 0 -1
BITMAP
80
80
80
80
80
ENDCHAR
STARTCHAR K
ENCODING 75
SWIDTH 632 0
DWIDTH 4 0
BBX 3 4 1 0
BITMAP
E0
80
C0
A0
ENDCHAR
STARTCHAR L
ENCODING 76
SWIDTH 536 0
DWIDTH 3 0
BBX 2 4 1 0
BITMAP
80
80
80
C0
ENDCHAR
STARTCHAR M
ENCODING 77
SWIDTH 918 0
DWIDTH 6 0
BBX 4 4 1 0
BITMAP
90
B0
B0
D0
ENDCHAR
STARTCHAR N
ENCODING 78
SWIDTH 776 0
DWIDTH 5 0
BBX 3 4 1 0
BITMAP
A0
A0
E0
A0
ENDCHAR
STARTCHAR O
ENCODING 79
SWIDTH 785 0
DWIDTH 5 0
BBX 4 4 0 0
BITMAP
70
90
90
70
ENDCHAR
STARTCHAR P
ENCODING 80
SWIDTH 612 0
DWIDTH 4 0
BBX 2 4 1 0
BITMAP
C0
C0
80
80
ENDCHAR
STARTCHAR Q
ENCODING 81
SWIDTH 785 0
DWIDTH 5 0
BBX 4 5 0 -1
BITMAP
70
90
90
70
10
ENDCHAR
STARTCHAR R
ENCODING 82
SWIDTH 633 0
DWIDTH 4 0
BBX 3 4 1 0
BITMAP
C0
C0
C0
A0
ENDCHAR
STARTCHAR S
ENCODING 83
SWIDTH 550 0
DWIDTH 3 0
BBX 3 4 0 0
BITMAP
E0
40
20
E0
ENDCHAR
STARTCHAR T
ENCODING 84
SWIDTH 563 0
DWIDTH 3 0
BBX 3 4 0 0
BITMAP
E0
40
40
40
ENDCHAR
STARTCHAR U
ENCODING 85
SWIDTH 738 0
DWIDTH 4 0
BBX 3 4 1 0
BITMAP
A0
A0
A0
E0
ENDCHAR
STARTCHAR V
ENCODING 86
SWIDTH 615 0
DWIDTH 4 0
BBX 4 4 0 0
BITMAP
90
A0
60
40
ENDCHAR
STARTCHAR W
ENCODING 87
SWIDTH 941 0
DWIDTH 6 0
BBX 6 4 0 0
BITMAP
A4
B8
58
48
ENDCHAR
STARTCHAR X
ENCODING 88
SWIDTH 610 0
DWIDTH 4 0
BBX 4 4 0 0
BITMAP
B0
40
60
B0
ENDCHAR
STARTCHAR Y
ENCODING 89
SWIDTH 583 0
DWIDTH 4 0
BBX 4 4 0 0
BITMAP
B0
60
40
40
ENDCHAR
STARTCHAR Z
ENCODING 90
SWIDTH 574 0
DWIDTH 3 0
BBX 3 4 0 0
BITMAP
E0
40
40
E0
ENDCHAR
STARTCHAR bracketleft
ENCODING 91
SWIDTH 330 0
DWIDTH 2 0
BBX 2 5 0 -1
BITMAP
C0
80
80
80
C0
ENDCHAR
STARTCHAR backslash
ENCODING 92
SWIDTH 384 0
DWIDTH 2 0
BBX 2 4 0 0
BITMAP
80
40
40
40
ENDCHAR
STARTCHAR bracketright
ENCODING 93
SWIDTH 330 0
DWIDTH 2 0
BBX 2 5 0 -1
BITMAP
C0
40
40
40
C0
ENDCHAR
STARTCHAR asciicircum
ENCODING 94
SWIDTH 572 0
DWIDTH 3 0
BBX 3 2 0 2
BITMAP
40
A0
ENDCHAR
STARTCHAR underscore
ENCODING 95
SWIDTH 434 0
DWIDTH 3 0
BBX 3 1 0 -1
BITMAP
E0
ENDCHAR
STARTCHAR grave
ENCODING 96
SWIDTH 305 0
DWIDTH 2 0
BBX 2 1 0 4
BITMAP
C0
ENDCHAR
STARTCHAR a
ENCODING 97
SWIDTH 574 0
DWIDTH 3 0
BBX 3 3 0 0
BITMAP
60
E0
E0
ENDCHAR
STARTCHAR b
ENCODING 98
SWIDTH 620 0
DWIDTH 4 0
BBX 3 5 0 0
BITMAP
80
80
E0
A0
E0
ENDCHAR
STARTCHAR c
ENCODING 99
SWIDTH 490 0
DWIDTH 3 0
BBX 3 3 0 0
BITMAP
E0
80
60
ENDCHAR
STARTCHAR d
ENCODING 100
SWIDTH 620 0
DWIDTH 4 0
BBX 3 5 0 0
BITMAP
20
60
A0
A0
60
ENDCHAR
STARTCHAR e
ENCODING 101
SWIDTH 572 0
DWIDTH 3 0
BBX 3 3 0 0
BITMAP
E0
E0
60
ENDCHAR
STARTCHAR f
ENCODING 102
SWIDTH 357 0
DWIDTH 2 0
BBX 2 5 0 0
BITMAP
40
80
C0
80
80
ENDCHAR
STARTCHAR g
ENCODING 103
SWIDTH 620 0
DWIDTH 4 0
BBX 3 4 0 -1
BITMAP
E0
A0
60
60
ENDCHAR
STARTCHAR h
ENCODING 104
SWIDTH 630 0
DWIDTH 4 0
BBX 3 5 0 0
BITMAP
80
80
E0
A0
A0
ENDCHAR
STARTCHAR i
ENCODING 105
SWIDTH 272 0
DWIDTH 2 0
BBX 1 4 0 0
BITMAP
80
80
80
80
ENDCHAR
STARTCHAR j
ENCODING 106
SWIDTH 272 0
DWIDTH 2 0
BBX 1 5 0 -1
BITMAP
80
80
80
80
80
ENDCHAR
STARTCHAR k
ENCODING 107
SWIDTH 559 0
DWIDTH 3 0
BBX 3 5 0 0
BITMAP
80
80
A0
C0
A0
ENDCHAR
STARTCHAR l
ENCODING 108
SWIDTH 272 0
DWIDTH 2 0
BBX 1 5 0 0
BITMAP
80
80
80
80
80
ENDCHAR
STARTCHAR m
ENCODING 109
SWIDTH 949 0
DWIDTH 6 0
BBX 5 3 0 0
BITMAP
F8
A8
A8
ENDCHAR
STARTCHAR n
ENCODING 110
SWIDTH 630 0
DWIDTH 4 0
BBX 3 3 0 0
BITMAP
E0
A0
A0
ENDCHAR
STARTCHAR o
ENCODING 111
SWIDTH 609 0
DWIDTH 4 0
BBX 3 3 0 0
BITMAP
E0
A0
60
ENDCHAR
STARTCHAR p
ENCODING 112
SWIDTH 620 0
DWIDTH 4 0
BBX 3 4 0 -1
BITMAP
E0
A0
E0
80
ENDCHAR
STARTCHAR q
ENCODING 113
SWIDTH 620 0
DWIDTH 4 0
BBX 3 4 0 -1
BITMAP
E0
A0
60
20
ENDCHAR
STARTCHAR r
ENCODING 114
SWIDTH 425 0
DWIDTH 3 0
BBX 2 3 0 0
BITMAP
C0
80
80
ENDCHAR
STARTCHAR s
ENCODING 115
SWIDTH 484 0
DWIDTH 3 0
BBX 3 3 0 0
BITMAP
E0
40
E0
ENDCHAR
STARTCHAR t
ENCODING 116
SWIDTH 383 0
DWIDTH 2 0
BBX 2 4 0 0
BITMAP
80
C0
80
40
ENDCHAR
STARTCHAR u
ENCODING 117
SWIDTH 630 0
DWIDTH 4 0
BBX 3 3 0 0
BITMAP
A0
A0
60
ENDCHAR
STARTCHAR v
ENCODING 118
SWIDTH 526 0
DWIDTH 3 0
BBX 3 3 0 0
BITMAP
A0
A0
40
ENDCHAR
STARTCHAR w
ENCODING 119
SWIDTH 807 0
DWIDTH 5 0
BBX 5 3 0 0
BITMAP
A8
F0
50
ENDCHAR
STARTCHAR x
ENCODING 120
SWIDTH 543 0
DWIDTH 3 0
BBX 3 3 0 0
BITMAP
A0
40
A0
ENDCHAR
STARTCHAR y
ENCODING 121
SWIDTH 527 0
DWIDTH 3 0
BBX 3 4 0 -1
BITMAP
A0
A0
40
C0
ENDCHAR
STARTCHAR z
ENCODING 122
SWIDTH 475 0
DWIDTH 3 0
BBX 3 3 0 0
BITMAP
E0
40
E0
ENDCHAR
STARTCHAR braceleft
ENCODING 123
SWIDTH 384 0
DWIDTH 2 0
BBX 2 5 0 -1
BITMAP
40
40
80
40
40
ENDCHAR
STARTCHAR bar
ENCODING 124
SWIDTH 551 0
DWIDTH 3 0
BBX 1 6 1 -1
BITMAP
80
80
80
80
80
80
ENDCHAR
STARTCHAR braceright
ENCODING 125
SWIDTH 384 0
DWIDTH 2 0
BBX 2 5 0 -1
BITMAP
C0
40
40
40
80
ENDCHAR
STARTCHAR asciitilde
ENCODING 126
SWIDTH 572 0
DWIDTH 3 0
BBX 3 1 0 2
BITMAP
E0
ENDCHAR
STARTCHAR uni00A0
ENCODING 160
SWIDTH 260 0
DWIDTH 2 0
BBX 1 1 0 0
BITMAP
00
ENDCHAR
STARTCHAR exclamdown
ENCODING 161
SWIDTH 274 0
DWIDTH 2 0
BBX 1 4 0 -1
BITMAP
80
80
80
80
ENDCHAR
STARTCHAR cent
ENCODING 162
SWIDTH 572 0
DWIDTH 3 0
BBX 2 4 1 0
BITMAP
C0
80
80
C0
ENDCHAR
STARTCHAR sterling
ENCODING 163
SWIDTH 572 0
DWIDTH 3 0
BBX 3 4 0 0
BITMAP
60
E0
40
E0
ENDCHAR
STARTCHAR currency
ENCODING 164
SWIDTH 572 0
DWIDTH 3 0
BBX 3 2 0 1
BITMAP
E0
E0
ENDCHAR
STARTCHAR yen
ENCODING 165
SWIDTH 572 0
DWIDTH 3 0
BBX 3 4 0 0
BITMAP
A0
40
60
60
ENDCHAR
STARTCHAR brokenbar
ENCODING 166
SWIDTH 551 0
DWIDTH 3 0
BBX 1 6 1 -1
BITMAP
80
80
80
00
80
80
ENDCHAR
STARTCHAR section
ENCODING 167
SWIDTH 505 0
DWIDTH 3 0
BBX 3 5 0 0
BITMAP
60
C0
A0
40
E0
ENDCHAR
STARTCHAR dieresis
ENCODING 168
SWIDTH 588 0
DWIDTH 4 0
BBX 2 1 1 4
BITMAP
C0
ENDCHAR
STARTCHAR copyright
ENCODING 169
SWIDTH 832 0
DWIDTH 5 0
BBX 5 4 0 0
BITMAP
F8
C8
C8
70
ENDCHAR
STARTCHAR ordfeminine
ENCODING 170
SWIDTH 365 0
DWIDTH 2 0
BBX 2 2 0 2
BITMAP
C0
C0
ENDCHAR
STARTCHAR guillemotleft
ENCODING 171
SWIDTH 540 0
DWIDTH 3 0
BBX 3 3 0 0
BITMAP
60
C0
60
ENDCHAR
STARTCHAR logicalnot
ENCODING 172
SWIDTH 572 0
DWIDTH 3 0
BBX 3 1 0 1
BITMAP
E0
ENDCHAR
STARTCHAR uni00AD
ENCODING 173
SWIDTH 322 0
DWIDTH 2 0
BBX 2 1 0 1
BITMAP
C0
ENDCHAR
STARTCHAR registered
ENCODING 174
SWIDTH 832 0
DWIDTH 5 0
BBX 5 4 0 0
BITMAP
F8
D8
E8
70
ENDCHAR
STARTCHAR overscore
ENCODING 175
SWIDTH 500 0
DWIDTH 3 0
BBX 3 1 0 4
BITMAP
E0
ENDCHAR
STARTCHAR degree
ENCODING 176
SWIDTH 428 0
DWIDTH 3 0
BBX 2 2 0 2
BITMAP
C0
40
ENDCHAR
STARTCHAR plusminus
ENCODING 177
SWIDTH 572 0
DWIDTH 3 0
BBX 3 4 0 0
BITMAP
40
E0
40
E0
ENDCHAR
STARTCHAR uni00B2
ENCODING 178
SWIDTH 359 0
DWIDTH 2 0
BBX 2 3 0 2
BITMAP
C0
40
C0
ENDCHAR
STARTCHAR uni00B3
ENCODING 179
SWIDTH 359 0
DWIDTH 2 0
BBX 2 3 0 2
BITMAP
C0
40
80
ENDCHAR
STARTCHAR acute
ENCODING 180
SWIDTH 305 0
DWIDTH 2 0
BBX 2 1 0 4
BITMAP
C0
ENDCHAR
STARTCHAR uni00B5
ENCODING 181
SWIDTH 634 0
DWIDTH 4 0
BBX 3 4 0 -1
BITMAP
A0
A0
E0
80
ENDCHAR
STARTCHAR paragraph
ENCODING 182
SWIDTH 655 0
DWIDTH 4 0
BBX 3 6 0 -1
BITMAP
60
E0
E0
20
20
20
ENDCHAR
STARTCHAR periodcentered
ENCODING 183
SWIDTH 273 0
DWIDTH 2 0
BBX 1 1 0 2
BITMAP
80
ENDCHAR
STARTCHAR cedilla
ENCODING 184
SWIDTH 219 0
DWIDTH 1 0
BBX 1 1 0 -1
BITMAP
80
ENDCHAR
STARTCHAR uni00B9
ENCODING 185
SWIDTH 359 0
DWIDTH 2 0
BBX 2 3 0 2
BITMAP
C0
40
40
ENDCHAR
STARTCHAR ordmasculine
ENCODING 186
SWIDTH 380 0
DWIDTH 2 0
BBX 2 2 0 2
BITMAP
C0
C0
ENDCHAR
STARTCHAR guillemotright
ENCODING 187
SWIDTH 540 0
DWIDTH 3 0
BBX 3 3 0 0
BITMAP
C0
60
C0
ENDCHAR
STARTCHAR onequarter
ENCODING 188
SWIDTH 770 0
DWIDTH 5 0
BBX 5 4 0 0
BITMAP
90
70
50
58
ENDCHAR
STARTCHAR onehalf
ENCODING 189
SWIDTH 801 0
DWIDTH 5 0
BBX 5 4 0 0
BITMAP
90
70
48
58
ENDCHAR
STARTCHAR threequarters
ENCODING 190
SWIDTH 800 0
DWIDTH 5 0
BBX 5 4 0 0
BITMAP
D0
68
B0
48
ENDCHAR
ENDFONT
