STARTFONT 2.1
FONT -FontForge-My Font-Regular-R-Normal--16-150-75-75-P-62-ISO10646-1
SIZE 15 75 75
FONTBOUNDINGBOX 11 13 0 -1
COMMENT "Generated by fontforge, http://fontforge.sourceforge.net"
COMMENT "Copyright DarkMaxX 2011"
STARTPROPERTIES 40
FOUNDRY "FontForge"
FAMILY_NAME "My Font"
WEIGHT_NAME "Regular"
SLANT "R"
SETWIDTH_NAME "Normal"
ADD_STYLE_NAME ""
PIXEL_SIZE 16
POINT_SIZE 150
RESOLUTION_X 75
RESOLUTION_Y 75
SPACING "P"
AVERAGE_WIDTH 62
CHARSET_REGISTRY "ISO10646"
CHARSET_ENCODING "1"
FONTNAME_REGISTRY ""
CHARSET_COLLECTIONS "ISO10646-1"
FONT_NAME "MyFontRegular"
FACE_NAME "My Font Regular"
COPYRIGHT "Copyright DarkMaxX 2011"
FONT_VERSION "Version 0.001"
FONT_ASCENT 13
FONT_DESCENT 3
UNDERLINE_POSITION 0
UNDERLINE_THICKNESS 0
X_HEIGHT 10
CAP_HEIGHT 10
DEFAULT_CHAR 0
RAW_ASCENT 799
RAW_DESCENT 200
NORM_SPACE 3
RELATIVE_WEIGHT 50
RELATIVE_SETWIDTH 50
SUPERSCRIPT_X 0
SUPERSCRIPT_Y 7
SUPERSCRIPT_SIZE 10
SUBSCRIPT_X 0
SUBSCRIPT_Y 2
SUBSCRIPT_SIZE 10
AVG_LOWERCASE_WIDTH 68
AVG_UPPERCASE_WIDTH 68
ENDPROPERTIES
CHARS 85
STARTCHAR .notdef
ENCODING 0
SWIDTH 460 0
DWIDTH 7 0
BBX 7 11 0 0
BITMAP
FE
82
82
82
82
82
82
82
82
82
FE
ENDCHAR
STARTCHAR space
ENCODING 32
SWIDTH 187 0
DWIDTH 3 0
BBX 1 1 0 0
BITMAP
00
ENDCHAR
STARTCHAR exclam
ENCODING 33
SWIDTH 187 0
DWIDTH 3 0
BBX 2 11 0 0
BITMAP
C0
C0
C0
C0
C0
C0
C0
C0
00
00
C0
ENDCHAR
STARTCHAR quotedbl
ENCODING 34
SWIDTH 375 0
DWIDTH 6 0
BBX 5 2 0 9
BITMAP
D8
D8
ENDCHAR
STARTCHAR dollar
ENCODING 36
SWIDTH 437 0
DWIDTH 7 0
BBX 6 13 0 -1
BITMAP
30
7C
FC
F0
F0
F0
78
3C
3C
3C
FC
FC
30
ENDCHAR
STARTCHAR quotesingle
ENCODING 39
SWIDTH 187 0
DWIDTH 3 0
BBX 2 2 0 9
BITMAP
C0
C0
ENDCHAR
STARTCHAR parenleft
ENCODING 40
SWIDTH 187 0
DWIDTH 3 0
BBX 2 11 0 0
BITMAP
40
80
80
80
80
80
80
80
80
80
40
ENDCHAR
STARTCHAR parenright
ENCODING 41
SWIDTH 187 0
DWIDTH 3 0
BBX 2 11 0 0
BITMAP
80
40
40
40
40
40
40
40
40
40
80
ENDCHAR
STARTCHAR comma
ENCODING 44
SWIDTH 187 0
DWIDTH 3 0
BBX 2 3 0 -1
BITMAP
C0
C0
40
ENDCHAR
STARTCHAR hyphen
ENCODING 45
SWIDTH 375 0
DWIDTH 6 0
BBX 5 1 0 4
BITMAP
F8
ENDCHAR
STARTCHAR period
ENCODING 46
SWIDTH 187 0
DWIDTH 3 0
BBX 2 2 0 0
BITMAP
C0
C0
ENDCHAR
STARTCHAR slash
ENCODING 47
SWIDTH 750 0
DWIDTH 12 0
BBX 11 10 0 0
BITMAP
0060
00C0
0180
0300
0600
0C00
1800
3000
6000
C000
ENDCHAR
STARTCHAR zero
ENCODING 48
SWIDTH 375 0
DWIDTH 6 0
BBX 5 11 0 0
BITMAP
38
78
D8
D8
D8
D8
D8
D8
D8
F8
F8
ENDCHAR
STARTCHAR one
ENCODING 49
SWIDTH 375 0
DWIDTH 6 0
BBX 5 11 0 0
BITMAP
30
70
30
30
30
30
30
30
30
30
F8
ENDCHAR
STARTCHAR two
ENCODING 50
SWIDTH 375 0
DWIDTH 6 0
BBX 5 11 0 0
BITMAP
38
78
D8
D8
18
30
60
C0
C0
F8
F8
ENDCHAR
STARTCHAR three
ENCODING 51
SWIDTH 375 0
DWIDTH 6 0
BBX 5 11 0 0
BITMAP
78
F8
D8
18
30
30
18
18
D8
F8
F8
ENDCHAR
STARTCHAR four
ENCODING 52
SWIDTH 437 0
DWIDTH 7 0
BBX 6 11 0 0
BITMAP
38
78
D8
D8
D8
D8
D8
FC
FC
18
18
ENDCHAR
STARTCHAR five
ENCODING 53
SWIDTH 375 0
DWIDTH 6 0
BBX 5 11 0 0
BITMAP
F8
F8
C0
F8
F8
18
18
18
18
F0
E0
ENDCHAR
STARTCHAR six
ENCODING 54
SWIDTH 375 0
DWIDTH 6 0
BBX 5 11 0 0
BITMAP
38
70
E0
C0
F8
D8
D8
D8
D8
F0
E0
ENDCHAR
STARTCHAR seven
ENCODING 55
SWIDTH 375 0
DWIDTH 6 0
BBX 5 11 0 0
BITMAP
F8
F8
18
18
30
60
60
60
60
60
60
ENDCHAR
STARTCHAR eight
ENCODING 56
SWIDTH 375 0
DWIDTH 6 0
BBX 5 11 0 0
BITMAP
78
F8
D8
D8
D8
70
D8
D8
D8
F8
F0
ENDCHAR
STARTCHAR nine
ENCODING 57
SWIDTH 375 0
DWIDTH 6 0
BBX 5 11 0 0
BITMAP
38
78
D8
D8
D8
D8
F8
18
38
70
E0
ENDCHAR
STARTCHAR colon
ENCODING 58
SWIDTH 187 0
DWIDTH 3 0
BBX 2 5 0 0
BITMAP
C0
C0
00
C0
C0
ENDCHAR
STARTCHAR semicolon
ENCODING 59
SWIDTH 187 0
DWIDTH 3 0
BBX 2 6 0 -1
BITMAP
C0
C0
00
C0
C0
40
ENDCHAR
STARTCHAR equal
ENCODING 61
SWIDTH 375 0
DWIDTH 6 0
BBX 5 3 0 4
BITMAP
F8
00
F8
ENDCHAR
STARTCHAR question
ENCODING 63
SWIDTH 375 0
DWIDTH 6 0
BBX 5 11 0 0
BITMAP
38
78
D8
D8
18
30
60
C0
C0
00
C0
ENDCHAR
STARTCHAR A
ENCODING 65
SWIDTH 437 0
DWIDTH 7 0
BBX 6 11 0 0
BITMAP
78
FC
CC
CC
CC
FC
FC
CC
CC
CC
CC
ENDCHAR
STARTCHAR B
ENCODING 66
SWIDTH 437 0
DWIDTH 7 0
BBX 6 11 0 0
BITMAP
F0
F8
DC
CC
F8
F0
F8
DC
CC
FC
FC
ENDCHAR
STARTCHAR C
ENCODING 67
SWIDTH 437 0
DWIDTH 7 0
BBX 6 11 0 0
BITMAP
7C
FC
C0
C0
C0
C0
C0
C0
C0
FC
FC
ENDCHAR
STARTCHAR D
ENCODING 68
SWIDTH 437 0
DWIDTH 7 0
BBX 6 11 0 0
BITMAP
F8
FC
CC
CC
CC
CC
CC
CC
CC
FC
F8
ENDCHAR
STARTCHAR E
ENCODING 69
SWIDTH 437 0
DWIDTH 7 0
BBX 6 11 0 0
BITMAP
FC
FC
C0
C0
FC
F8
C0
C0
C0
FC
FC
ENDCHAR
STARTCHAR F
ENCODING 70
SWIDTH 437 0
DWIDTH 7 0
BBX 6 11 0 0
BITMAP
FC
FC
C0
C0
FC
F8
C0
C0
C0
C0
C0
ENDCHAR
STARTCHAR G
ENCODING 71
SWIDTH 437 0
DWIDTH 7 0
BBX 6 11 0 0
BITMAP
7C
FC
C0
C0
C0
DC
DC
CC
CC
FC
FC
ENDCHAR
STARTCHAR H
ENCODING 72
SWIDTH 500 0
DWIDTH 8 0
BBX 7 11 0 0
BITMAP
C6
C6
C6
C6
FE
FE
C6
C6
C6
C6
C6
ENDCHAR
STARTCHAR I
ENCODING 73
SWIDTH 187 0
DWIDTH 3 0
BBX 2 11 0 0
BITMAP
C0
C0
C0
C0
C0
C0
C0
C0
C0
C0
C0
ENDCHAR
STARTCHAR J
ENCODING 74
SWIDTH 375 0
DWIDTH 6 0
BBX 5 11 0 0
BITMAP
18
18
18
18
18
18
18
18
D8
F8
F8
ENDCHAR
STARTCHAR K
ENCODING 75
SWIDTH 437 0
DWIDTH 7 0
BBX 6 11 0 0
BITMAP
CC
CC
D8
D8
F0
F0
F0
D8
D8
CC
CC
ENDCHAR
STARTCHAR L
ENCODING 76
SWIDTH 437 0
DWIDTH 7 0
BBX 6 11 0 0
BITMAP
C0
C0
C0
C0
C0
C0
C0
C0
C0
FC
FC
ENDCHAR
STARTCHAR M
ENCODING 77
SWIDTH 437 0
DWIDTH 7 0
BBX 6 11 0 0
BITMAP
84
84
CC
CC
FC
FC
B4
B4
CC
CC
CC
ENDCHAR
STARTCHAR N
ENCODING 78
SWIDTH 437 0
DWIDTH 7 0
BBX 6 11 0 0
BITMAP
CC
CC
EC
EC
FC
FC
FC
DC
DC
CC
CC
ENDCHAR
STARTCHAR O
ENCODING 79
SWIDTH 437 0
DWIDTH 7 0
BBX 6 11 0 0
BITMAP
78
FC
CC
CC
CC
CC
CC
CC
CC
FC
FC
ENDCHAR
STARTCHAR P
ENCODING 80
SWIDTH 437 0
DWIDTH 7 0
BBX 6 11 0 0
BITMAP
F0
F8
DC
CC
DC
F8
F0
C0
C0
C0
C0
ENDCHAR
STARTCHAR Q
ENCODING 81
SWIDTH 500 0
DWIDTH 8 0
BBX 7 11 0 0
BITMAP
78
FC
CC
CC
CC
CC
CC
CC
CC
FE
FE
ENDCHAR
STARTCHAR R
ENCODING 82
SWIDTH 437 0
DWIDTH 7 0
BBX 6 11 0 0
BITMAP
F0
F8
DC
CC
DC
F8
F0
D8
CC
CC
CC
ENDCHAR
STARTCHAR S
ENCODING 83
SWIDTH 437 0
DWIDTH 7 0
BBX 6 11 0 0
BITMAP
7C
FC
C0
C0
E0
78
1C
0C
0C
FC
FC
ENDCHAR
STARTCHAR T
ENCODING 84
SWIDTH 437 0
DWIDTH 7 0
BBX 6 11 0 0
BITMAP
FC
FC
30
30
30
30
30
30
30
30
30
ENDCHAR
STARTCHAR U
ENCODING 85
SWIDTH 437 0
DWIDTH 7 0
BBX 6 11 0 0
BITMAP
CC
CC
CC
CC
CC
CC
CC
CC
CC
FC
FC
ENDCHAR
STARTCHAR V
ENCODING 86
SWIDTH 437 0
DWIDTH 7 0
BBX 6 11 0 0
BITMAP
CC
CC
CC
CC
CC
CC
CC
78
78
30
30
ENDCHAR
STARTCHAR W
ENCODING 87
SWIDTH 437 0
DWIDTH 7 0
BBX 6 11 0 0
BITMAP
B4
B4
B4
B4
B4
B4
B4
FC
FC
CC
48
ENDCHAR
STARTCHAR X
ENCODING 88
SWIDTH 437 0
DWIDTH 7 0
BBX 6 11 0 0
BITMAP
CC
CC
CC
CC
78
30
78
CC
CC
CC
CC
ENDCHAR
STARTCHAR Y
ENCODING 89
SWIDTH 437 0
DWIDTH 7 0
BBX 6 11 0 0
BITMAP
CC
CC
CC
FC
78
30
30
30
30
30
30
ENDCHAR
STARTCHAR Z
ENCODING 90
SWIDTH 437 0
DWIDTH 7 0
BBX 6 11 0 0
BITMAP
FC
FC
0C
18
18
30
30
60
60
FC
FC
ENDCHAR
STARTCHAR bracketleft
ENCODING 91
SWIDTH 250 0
DWIDTH 4 0
BBX 3 11 0 0
BITMAP
E0
C0
C0
C0
C0
C0
C0
C0
C0
C0
E0
ENDCHAR
STARTCHAR bracketright
ENCODING 93
SWIDTH 250 0
DWIDTH 4 0
BBX 3 11 0 0
BITMAP
E0
60
60
60
60
60
60
60
60
60
E0
ENDCHAR
STARTCHAR underscore
ENCODING 95
SWIDTH 500 0
DWIDTH 8 0
BBX 7 1 0 0
BITMAP
FE
ENDCHAR
STARTCHAR a
ENCODING 97
SWIDTH 437 0
DWIDTH 7 0
BBX 6 11 0 0
BITMAP
78
FC
CC
CC
CC
FC
FC
CC
CC
CC
CC
ENDCHAR
STARTCHAR b
ENCODING 98
SWIDTH 437 0
DWIDTH 7 0
BBX 6 11 0 0
BITMAP
F0
F8
DC
CC
F8
F0
F8
DC
CC
FC
FC
ENDCHAR
STARTCHAR c
ENCODING 99
SWIDTH 437 0
DWIDTH 7 0
BBX 6 11 0 0
BITMAP
7C
FC
C0
C0
C0
C0
C0
C0
C0
FC
FC
ENDCHAR
STARTCHAR d
ENCODING 100
SWIDTH 437 0
DWIDTH 7 0
BBX 6 11 0 0
BITMAP
F8
FC
CC
CC
CC
CC
CC
CC
CC
FC
F8
ENDCHAR
STARTCHAR e
ENCODING 101
SWIDTH 437 0
DWIDTH 7 0
BBX 6 11 0 0
BITMAP
FC
FC
C0
C0
FC
F8
C0
C0
C0
FC
FC
ENDCHAR
STARTCHAR f
ENCODING 102
SWIDTH 437 0
DWIDTH 7 0
BBX 6 11 0 0
BITMAP
FC
FC
C0
C0
FC
F8
C0
C0
C0
C0
C0
ENDCHAR
STARTCHAR g
ENCODING 103
SWIDTH 437 0
DWIDTH 7 0
BBX 6 11 0 0
BITMAP
7C
FC
C0
C0
C0
DC
DC
CC
CC
FC
FC
ENDCHAR
STARTCHAR h
ENCODING 104
SWIDTH 500 0
DWIDTH 8 0
BBX 7 11 0 0
BITMAP
C6
C6
C6
C6
FE
FE
C6
C6
C6
C6
C6
ENDCHAR
STARTCHAR i
ENCODING 105
SWIDTH 187 0
DWIDTH 3 0
BBX 2 11 0 0
BITMAP
C0
C0
C0
C0
C0
C0
C0
C0
C0
C0
C0
ENDCHAR
STARTCHAR j
ENCODING 106
SWIDTH 375 0
DWIDTH 6 0
BBX 5 11 0 0
BITMAP
18
18
18
18
18
18
18
18
D8
F8
F8
ENDCHAR
STARTCHAR k
ENCODING 107
SWIDTH 437 0
DWIDTH 7 0
BBX 6 11 0 0
BITMAP
CC
CC
D8
D8
F0
F0
F0
D8
D8
CC
CC
ENDCHAR
STARTCHAR l
ENCODING 108
SWIDTH 437 0
DWIDTH 7 0
BBX 6 11 0 0
BITMAP
C0
C0
C0
C0
C0
C0
C0
C0
C0
FC
FC
ENDCHAR
STARTCHAR m
ENCODING 109
SWIDTH 437 0
DWIDTH 7 0
BBX 6 11 0 0
BITMAP
84
84
CC
CC
FC
FC
B4
B4
CC
CC
CC
ENDCHAR
STARTCHAR n
ENCODING 110
SWIDTH 437 0
DWIDTH 7 0
BBX 6 11 0 0
BITMAP
CC
CC
EC
EC
FC
FC
FC
DC
DC
CC
CC
ENDCHAR
STARTCHAR o
ENCODING 111
SWIDTH 437 0
DWIDTH 7 0
BBX 6 11 0 0
BITMAP
78
FC
CC
CC
CC
CC
CC
CC
CC
FC
FC
ENDCHAR
STARTCHAR p
ENCODING 112
SWIDTH 437 0
DWIDTH 7 0
BBX 6 11 0 0
BITMAP
F0
F8
DC
CC
DC
F8
F0
C0
C0
C0
C0
ENDCHAR
STARTCHAR q
ENCODING 113
SWIDTH 500 0
DWIDTH 8 0
BBX 7 11 0 0
BITMAP
78
FC
CC
CC
CC
CC
CC
CC
CC
FE
FE
ENDCHAR
STARTCHAR r
ENCODING 114
SWIDTH 437 0
DWIDTH 7 0
BBX 6 11 0 0
BITMAP
F0
F8
DC
CC
DC
F8
F0
D8
CC
CC
CC
ENDCHAR
STARTCHAR s
ENCODING 115
SWIDTH 437 0
DWIDTH 7 0
BBX 6 11 0 0
BITMAP
7C
FC
C0
C0
E0
78
1C
0C
0C
FC
FC
ENDCHAR
STARTCHAR t
ENCODING 116
SWIDTH 437 0
DWIDTH 7 0
BBX 6 11 0 0
BITMAP
FC
FC
30
30
30
30
30
30
30
30
30
ENDCHAR
STARTCHAR u
ENCODING 117
SWIDTH 437 0
DWIDTH 7 0
BBX 6 11 0 0
BITMAP
CC
CC
CC
CC
CC
CC
CC
CC
CC
FC
FC
ENDCHAR
STARTCHAR v
ENCODING 118
SWIDTH 437 0
DWIDTH 7 0
BBX 6 11 0 0
BITMAP
CC
CC
CC
CC
CC
CC
CC
78
78
30
30
ENDCHAR
STARTCHAR w
ENCODING 119
SWIDTH 437 0
DWIDTH 7 0
BBX 6 11 0 0
BITMAP
B4
B4
B4
B4
B4
B4
B4
FC
FC
CC
48
ENDCHAR
STARTCHAR x
ENCODING 120
SWIDTH 437 0
DWIDTH 7 0
BBX 6 11 0 0
BITMAP
CC
CC
CC
CC
78
30
78
CC
CC
CC
CC
ENDCHAR
STARTCHAR y
ENCODING 121
SWIDTH 437 0
DWIDTH 7 0
BBX 6 11 0 0
BITMAP
CC
CC
CC
FC
78
30
30
30
30
30
30
ENDCHAR
STARTCHAR z
ENCODING 122
SWIDTH 437 0
DWIDTH 7 0
BBX 6 11 0 0
BITMAP
FC
FC
0C
18
18
30
30
60
60
FC
FC
ENDCHAR
STARTCHAR quoteleft
ENCODING 8216
SWIDTH 187 0
DWIDTH 3 0
BBX 2 3 0 8
BITMAP
80
C0
C0
ENDCHAR
STARTCHAR quoteright
ENCODING 8217
SWIDTH 187 0
DWIDTH 3 0
BBX 2 3 0 8
BITMAP
C0
C0
40
ENDCHAR
STARTCHAR quotedblleft
ENCODING 8220
SWIDTH 375 0
DWIDTH 6 0
BBX 5 3 0 8
BITMAP
90
D8
D8
ENDCHAR
STARTCHAR quotedblright
ENCODING 8221
SWIDTH 375 0
DWIDTH 6 0
BBX 5 3 0 8
BITMAP
D8
D8
48
ENDCHAR
ENDFONT
